<?xml version="1.0" encoding="UTF-8"?>
<svg version="1.1" xmlns="http://www.w3.org/2000/svg" width="512" height="512">
<path d="M0 0 C6.28349446 5.0077205 11.91836885 10.76998334 17.59088135 16.44371033 C18.52594442 17.37509671 19.46100749 18.3064831 20.42440581 19.26609331 C23.00040209 21.83215816 25.57332225 24.40128748 28.14569044 26.97098863 C30.92782996 29.74919911 33.71278826 32.5245818 36.49731445 35.30039978 C43.20711413 41.99051904 49.91214121 48.68541155 56.61656249 55.38092002 C59.77766044 58.53762556 62.93924373 61.69384493 66.10076141 64.85013008 C76.61332246 75.34569543 87.12463384 85.84250995 97.63232803 96.34294796 C100.35350869 99.06221893 103.07469469 101.78148455 105.79589844 104.50073242 C106.47218535 105.1765356 107.14847227 105.85233877 107.84525272 106.54862083 C118.81535319 117.51041025 129.79395219 128.4636468 140.77610591 139.41335922 C152.06138894 150.66557741 163.3391339 161.92530602 174.60949492 173.19247061 C180.933663 179.51447423 187.26107939 185.83315001 193.59693146 192.14344597 C198.98841525 197.51323161 204.3730321 202.8897853 209.74881247 208.27529376 C212.49059727 211.02162431 215.2355049 213.76462793 217.98925018 216.49897003 C220.97611098 219.46496599 223.94720584 222.4462748 226.91705322 225.42930603 C227.78708111 226.28836467 228.657109 227.14742331 229.55350137 228.03251404 C237.8348078 236.40295369 241.3222166 243.92147389 241.31030273 255.74267578 C240.95167683 273.20364191 226.32846934 283.82400538 214.8203125 295.35668945 C213.51322799 296.67005362 212.20632812 297.98360157 210.89959717 299.2973175 C206.64492701 303.57282824 202.38510348 307.84318541 198.125 312.11328125 C196.65135573 313.5909787 195.17774345 315.06870805 193.7041626 316.54646873 C186.78639469 323.48323362 179.86625585 330.4176224 172.94316673 337.34907657 C164.97317067 345.32886533 157.01154509 353.31688657 149.05683327 361.31191093 C142.88865684 367.51026494 136.71280714 373.70090606 130.53117943 379.88584489 C126.84676322 383.57260686 123.16569921 387.26257262 119.49273682 390.96074867 C116.04094864 394.43585541 112.57971409 397.9012699 109.11112213 401.35960197 C107.84391416 402.62631564 106.58009176 403.89642717 105.32003021 405.17024994 C95.59192079 414.99859079 87.67847815 422.1774438 73.3125 422.3125 C58.4474616 422.32755236 51.05736615 414.149688 41.01852775 404.16625744 C40.15742275 403.30496808 39.29631774 402.44367871 38.40911865 401.55628967 C37.47405558 400.62490329 36.53899251 399.6935169 35.57559419 398.73390669 C32.99959791 396.16784184 30.42667775 393.59871252 27.85430956 391.02901137 C25.07217004 388.25080089 22.28721174 385.4754182 19.50268555 382.69960022 C12.79288587 376.00948096 6.08785879 369.31458845 -0.61656249 362.61907998 C-3.77766044 359.46237444 -6.93924373 356.30615507 -10.10076141 353.14986992 C-20.61332246 342.65430457 -31.12463384 332.15749005 -41.63232803 321.65705204 C-44.35350869 318.93778107 -47.07469469 316.21851545 -49.79589844 313.49926758 C-50.47218535 312.8234644 -51.14847227 312.14766123 -51.84525272 311.45137917 C-62.81535319 300.48958975 -73.79395219 289.5363532 -84.77610591 278.58664078 C-96.06138894 267.33442259 -107.3391339 256.07469398 -118.60949492 244.80752939 C-124.933663 238.48552577 -131.26107939 232.16684999 -137.59693146 225.85655403 C-142.98841525 220.48676839 -148.3730321 215.1102147 -153.74881247 209.72470624 C-156.49059727 206.97837569 -159.2355049 204.23537207 -161.98925018 201.50102997 C-164.97611098 198.53503401 -167.94720584 195.5537252 -170.91705322 192.57069397 C-171.78708111 191.71163533 -172.657109 190.85257669 -173.55350137 189.96748596 C-181.45032769 181.98566464 -185.28130067 174.34107549 -186 163 C-185.3742425 147.71065852 -174.78078504 138.19546142 -164.61010742 128.0925293 C-163.2437045 126.72069806 -161.8781522 125.34801913 -160.51338196 123.9745636 C-156.82419462 120.26722647 -153.12257008 116.57255108 -149.41794753 112.88064551 C-145.53241125 109.00527812 -141.65669121 105.12011293 -137.77937317 101.23652649 C-131.26918879 94.7190779 -124.7506456 88.21007901 -118.22729492 81.70581055 C-110.69666571 74.19695668 -103.18056661 66.67378958 -95.67183417 59.14304417 C-89.21105751 52.66408957 -82.74248588 46.19299504 -76.26738816 39.72835284 C-72.4059755 35.8731607 -68.54727929 32.0153539 -64.69560814 28.15042686 C-61.07421697 24.51744276 -57.44310679 20.89445617 -53.80441093 17.27880669 C-52.47435289 15.95401688 -51.14764834 14.62584994 -49.82465744 13.29400253 C-36.56768361 -0.04348048 -18.72512048 -12.12929698 0 0 Z M0.26081312 55.48102427 C-0.25085732 55.99852039 -0.76252776 56.51601651 -1.28970337 57.04919434 C-1.83452468 57.5923068 -2.379346 58.13541926 -2.94067705 58.69498968 C-4.77725787 60.52825873 -6.60656857 62.36861775 -8.43603516 64.20898438 C-9.74622893 65.5197419 -11.05686247 66.83005996 -12.36790466 68.13996887 C-15.93621515 71.70770343 -19.4983078 75.28158916 -23.05935717 78.85656929 C-26.77806641 82.58774599 -30.50240645 86.31329327 -34.22616577 90.03942871 C-41.2814289 97.10091836 -48.33157655 104.16749264 -55.37992322 111.23588514 C-63.40248745 119.28077197 -71.43070337 127.32000855 -79.45941091 135.35876369 C-95.97925943 151.89954076 -112.49195918 168.44743919 -129 185 C-127.67938625 187.92226239 -126.25477399 189.99452555 -123.98962975 192.25646591 C-123.36908663 192.88099112 -122.74854352 193.50551633 -122.10919607 194.14896655 C-121.4263239 194.82601303 -120.74345174 195.50305952 -120.03988647 196.20062256 C-119.31538886 196.92682903 -118.59089124 197.65303549 -117.84443915 198.40124822 C-115.40932521 200.83966313 -112.96711921 203.27084908 -110.52490234 205.70214844 C-108.78035767 207.44612913 -107.03625296 209.19055001 -105.29255676 210.93537903 C-101.53428988 214.69410173 -97.77297535 218.44973395 -94.00886154 222.20259857 C-88.56659272 227.62861356 -83.12985468 233.06014254 -77.69445081 238.49303332 C-68.87572884 247.307378 -60.05254977 256.11724707 -51.2265625 264.92431641 C-42.65293088 273.47959009 -34.08140227 282.03696177 -25.51269531 290.59716797 C-24.98452254 291.12481529 -24.45634977 291.65246262 -23.91217177 292.19609925 C-21.26249804 294.84316291 -18.61286562 297.49026791 -15.96325374 300.13739347 C6.01809647 322.09801014 28.00675597 344.05129453 50 366 C53.84366867 364.21162038 56.50014364 361.77491904 59.45428467 358.78622437 C59.99264773 358.24957016 60.53101079 357.71291595 61.08568788 357.15999949 C62.88840976 355.36057183 64.68389035 353.55408914 66.47949219 351.74755859 C67.77027659 350.45621006 69.06150152 349.16530174 70.35313416 347.87480164 C73.85934429 344.36916595 77.35934839 340.85739249 80.85828686 337.34450102 C84.51557912 333.67471685 88.17852572 330.01058551 91.84088135 326.34585571 C98.77566734 319.40485043 105.70533879 312.45876206 112.63319612 305.51084197 C120.52036879 297.60132429 128.41321275 289.69747642 136.30654287 281.79410434 C152.54402242 265.53571261 168.77435172 249.27019858 185 233 C183.68003205 230.08042232 182.25618874 228.00587655 179.99521637 225.74353409 C179.37590665 225.11900888 178.75659694 224.49448367 178.11852026 223.85103345 C177.43701233 223.17398697 176.75550441 222.49694048 176.05334473 221.79937744 C175.33025824 221.07317097 174.60717175 220.34696451 173.86217356 219.59875178 C171.4317444 217.16032883 168.99420896 214.72913632 166.55664062 212.29785156 C164.81535467 210.55385642 163.07449467 208.80943589 161.33403015 207.06462097 C157.09299272 202.81539912 152.8472808 198.57090071 148.59925401 194.32867011 C145.14837199 190.8823022 141.69944379 187.43399037 138.25190735 183.98427582 C137.51632158 183.24823035 137.51632158 183.24823035 136.76587549 182.49731527 C135.76973654 181.50053689 134.77360208 180.50375401 133.77747208 179.50696668 C124.43555824 170.15934897 115.08752229 160.817873 105.73738581 151.47848114 C97.70800021 143.45803669 89.68388075 135.43235503 81.66357422 127.40283203 C72.35482028 118.08338608 63.04284473 108.76717891 53.72566938 99.45615172 C52.7331396 98.46425906 51.74061401 97.47236221 50.74809265 96.48046112 C50.25971653 95.99239355 49.77134042 95.50432599 49.26816502 95.00146849 C45.82026335 91.55529656 42.37469386 88.1068033 38.93000793 84.6574173 C34.29894649 80.02017609 29.66263315 75.38823318 25.0226841 70.75988197 C23.31568851 69.05554223 21.61041353 67.34947729 19.90694237 65.64161491 C17.59141847 63.32067067 15.26989573 61.0059041 12.94665527 58.69268799 C12.26514735 58.00671862 11.58363942 57.32074925 10.88147974 56.61399293 C10.26217002 55.99989871 9.64286031 55.38580449 9.00478363 54.75310135 C8.46894323 54.21758565 7.93310283 53.68206995 7.38102484 53.13032651 C4.22926173 50.55070499 2.65916659 53.10310951 0.26081312 55.48102427 Z " fill="#ffe0c2" transform="translate(228,47)"/>
<path d="M0 0 C4.91709952 2.28293906 7.43806925 5.25568379 10 10 C10.92740729 14.18889334 11.14633308 18.29992482 11.28979492 22.56958008 C12.64148888 62.1172793 24.4397977 101.85584802 48 134 C48.76828125 135.051875 49.5365625 136.10375 50.328125 137.1875 C56.07529439 144.9140087 62.34382371 152.04966587 69 159 C69.47163574 159.49886719 69.94327148 159.99773437 70.42919922 160.51171875 C82.5143014 173.28635139 82.5143014 173.28635139 97 183 C96.78794922 182.09870361 96.57589844 181.19740723 96.35742188 180.26879883 C95.5632567 176.8623975 94.78219095 173.45349691 94.00927734 170.04223633 C93.67480956 168.57785748 93.3354419 167.11458747 92.99072266 165.65258789 C87.68004136 143.08606316 87.68004136 143.08606316 91.625 134.4375 C96.24147085 129.69954308 99.32278848 127.74791627 106 127.5 C111.11720994 127.68999542 114.18069828 128.37166337 118 132 C121.15424301 136.20077479 122.70375885 139.70200287 123.79931641 144.82470703 C123.94299149 145.47930405 124.08666656 146.13390106 124.23469543 146.80833435 C124.70272935 148.95569249 125.15232722 151.10645023 125.6015625 153.2578125 C125.92631124 154.76771209 126.2521253 156.2773829 126.57894897 157.78683472 C127.26060435 160.9474322 127.93396565 164.10963518 128.60058594 167.2734375 C129.44827217 171.29658006 130.30927459 175.31670668 131.17571449 179.33584785 C132.00939102 183.20476648 132.83729479 187.07491241 133.6640625 190.9453125 C133.81876637 191.66827641 133.97347023 192.39124031 134.13286209 193.13611221 C135.5917565 199.9741971 137.01577993 206.81921115 138.26708984 213.69873047 C138.43348969 214.61105438 138.59988953 215.5233783 138.77133179 216.46334839 C139.16101747 220.78619157 138.22328858 224.29939467 136 228 C131.06198094 233.62649287 126.92797304 234.95795121 119.5539856 235.44172668 C118.47961746 235.50646431 118.47961746 235.50646431 117.38354492 235.57250977 C116.62011276 235.62142365 115.8566806 235.67033752 115.07011414 235.72073364 C112.54046537 235.88161015 110.01050874 236.0368122 107.48046875 236.19140625 C105.70281717 236.30195382 103.92517345 236.41262796 102.14753723 236.52342224 C98.40768005 236.75549927 94.66764895 236.98450674 90.92749023 237.21166992 C87.13452074 237.44240131 83.34191398 237.6780581 79.54956055 237.91870117 C43.5332153 240.20230445 43.5332153 240.20230445 29.23828125 240.40234375 C28.35335495 240.42663956 27.46842865 240.45093536 26.5566864 240.47596741 C21.21446273 240.4767413 18.24918353 239.52208936 14 236 C10.37166337 232.18069828 9.68999542 229.11720994 9.5 224 C9.68999542 218.88279006 10.37166337 215.81930172 14 212 C20.11348886 207.08262852 25.90105438 206.92320333 33.5234375 206.5 C34.22844391 206.45939453 34.93345032 206.41878906 35.65982056 206.37695312 C37.89805173 206.24822489 40.13648372 206.12366426 42.375 206 C44.60636151 205.87614299 46.83763977 205.75124893 49.0687561 205.62304688 C51.09825897 205.50647225 53.12798192 205.39374788 55.15771484 205.28125 C59.13618541 204.99003141 63.04690513 204.5274456 67 204 C65.00125832 202.14446085 63.00123205 200.29035069 61 198.4375 C60.1030542 197.60605469 60.1030542 197.60605469 59.18798828 196.7578125 C56.13534521 193.93719342 53.05980289 191.17176979 49.875 188.5 C11.59066971 155.09112722 -11.56270462 103.14724561 -20 54 C-20.226875 52.73671875 -20.45375 51.4734375 -20.6875 50.171875 C-22.05204674 41.26441714 -22.26233037 32.37477403 -22.375 23.375 C-22.40110352 22.15232422 -22.42720703 20.92964844 -22.45410156 19.66992188 C-22.47510117 8.85212434 -22.47510117 8.85212434 -18 4 C-12.72867143 -1.00776214 -6.89190982 -0.92775709 0 0 Z " fill="#ffe0c2" transform="translate(22,272)"/>
<path d="M0 0 C0.8849263 -0.02429581 1.7698526 -0.04859161 2.68159485 -0.07362366 C8.02381852 -0.07439755 10.98909772 0.88025439 15.23828125 4.40234375 C18.86661788 8.22164547 19.54828583 11.28513381 19.73828125 16.40234375 C19.54828583 21.51955369 18.86661788 24.58304203 15.23828125 28.40234375 C9.25891471 33.10950464 3.98344399 33.52423066 -3.40625 33.90234375 C-4.1348674 33.94294922 -4.8634848 33.98355469 -5.61418152 34.02539062 C-7.93402271 34.15443182 -10.25407624 34.27884724 -12.57421875 34.40234375 C-14.88363031 34.52611835 -17.19295492 34.65101929 -19.50212097 34.77929688 C-20.93452012 34.85881051 -22.36706206 34.93580968 -23.79975891 35.00976562 C-28.49418118 35.26951661 -33.10521691 35.77822623 -37.76171875 36.40234375 C-35.76297707 38.2578829 -33.7629508 40.11199306 -31.76171875 41.96484375 C-31.16375488 42.51914062 -30.56579102 43.0734375 -29.94970703 43.64453125 C-26.89706396 46.46515033 -23.82152164 49.23057396 -20.63671875 51.90234375 C17.64761154 85.31121653 40.80098587 137.25509814 49.23828125 186.40234375 C49.46515625 187.665625 49.69203125 188.92890625 49.92578125 190.23046875 C51.29032799 199.13792661 51.50061162 208.02756972 51.61328125 217.02734375 C51.63938477 218.25001953 51.66548828 219.47269531 51.69238281 220.73242188 C51.71338242 231.55021941 51.71338242 231.55021941 47.23828125 236.40234375 C43.41897953 240.03068038 40.35549119 240.71234833 35.23828125 240.90234375 C30.12107131 240.71234833 27.05758297 240.03068038 23.23828125 236.40234375 C18.52302149 230.54012892 18.19170396 225.071312 17.94848633 217.83276367 C16.59679237 178.28506445 4.79848355 138.54649573 -18.76171875 106.40234375 C-19.53 105.35046875 -20.29828125 104.29859375 -21.08984375 103.21484375 C-26.83701314 95.48833505 -33.10554246 88.35267788 -39.76171875 81.40234375 C-40.23335449 80.90347656 -40.70499023 80.40460938 -41.19091797 79.890625 C-53.27602015 67.11599236 -53.27602015 67.11599236 -67.76171875 57.40234375 C-67.54966797 58.30364014 -67.33761719 59.20493652 -67.11914062 60.13354492 C-66.32497545 63.53994625 -65.5439097 66.94884684 -64.77099609 70.36010742 C-64.43652831 71.82448627 -64.09716065 73.28775628 -63.75244141 74.74975586 C-58.44176011 97.31628059 -58.44176011 97.31628059 -62.38671875 105.96484375 C-67.0031896 110.70280067 -70.08450723 112.65442748 -76.76171875 112.90234375 C-81.87892869 112.71234833 -84.94241703 112.03068038 -88.76171875 108.40234375 C-91.91596176 104.20156896 -93.4654776 100.70034088 -94.56103516 95.57763672 C-94.70471024 94.9230397 -94.84838531 94.26844269 -94.99641418 93.5940094 C-95.4644481 91.44665126 -95.91404597 89.29589352 -96.36328125 87.14453125 C-96.68802999 85.63463166 -97.01384405 84.12496085 -97.34066772 82.61550903 C-98.0223231 79.45491155 -98.6956844 76.29270857 -99.36230469 73.12890625 C-100.20999092 69.10576369 -101.07099334 65.08563707 -101.93743324 61.0664959 C-102.77110977 57.19757727 -103.59901354 53.32743134 -104.42578125 49.45703125 C-104.65783705 48.37258539 -104.65783705 48.37258539 -104.89458084 47.26623154 C-106.35347525 40.42814665 -107.77749868 33.5831326 -109.02880859 26.70361328 C-109.19520844 25.79128937 -109.36160828 24.87896545 -109.53305054 23.93899536 C-109.92273622 19.61615218 -108.98500733 16.10294908 -106.76171875 12.40234375 C-101.82369969 6.77585088 -97.68969179 5.44439254 -90.31570435 4.96061707 C-89.24133621 4.89587944 -89.24133621 4.89587944 -88.14526367 4.82983398 C-87.00011543 4.75646317 -87.00011543 4.75646317 -85.83183289 4.68161011 C-83.30218412 4.5207336 -80.77222749 4.36553155 -78.2421875 4.2109375 C-76.46453592 4.10038993 -74.6868922 3.98971579 -72.90925598 3.87892151 C-69.1693988 3.64684448 -65.4293677 3.41783701 -61.68920898 3.19067383 C-57.89623949 2.95994244 -54.10363273 2.72428565 -50.3112793 2.48364258 C-14.29493405 0.2000393 -14.29493405 0.2000393 0 0 Z " fill="#ffe0c2" transform="translate(460.76171875,-0.40234375)"/>
</svg>
